static pose
version=1
nRows=1
nColumns=79
inDegrees=no
endheader
time	/jointset/ground_pelvis/pelvis_tilt/value	/jointset/ground_pelvis/pelvis_tilt/speed	/jointset/ground_pelvis/pelvis_list/value	/jointset/ground_pelvis/pelvis_list/speed	/jointset/ground_pelvis/pelvis_rotation/value	/jointset/ground_pelvis/pelvis_rotation/speed	/jointset/ground_pelvis/pelvis_tx/value	/jointset/ground_pelvis/pelvis_tx/speed	/jointset/ground_pelvis/pelvis_ty/value	/jointset/ground_pelvis/pelvis_ty/speed	/jointset/ground_pelvis/pelvis_tz/value	/jointset/ground_pelvis/pelvis_tz/speed	/jointset/hip_r/hip_flexion_r/value	/jointset/hip_r/hip_flexion_r/speed	/jointset/hip_r/hip_adduction_r/value	/jointset/hip_r/hip_adduction_r/speed	/jointset/hip_r/hip_rotation_r/value	/jointset/hip_r/hip_rotation_r/speed	/jointset/knee_r/knee_angle_r/value	/jointset/knee_r/knee_angle_r/speed	/jointset/ankle_r/ankle_angle_r/value	/jointset/ankle_r/ankle_angle_r/speed	/jointset/hip_l/hip_flexion_l/value	/jointset/hip_l/hip_flexion_l/speed	/jointset/hip_l/hip_adduction_l/value	/jointset/hip_l/hip_adduction_l/speed	/jointset/hip_l/hip_rotation_l/value	/jointset/hip_l/hip_rotation_l/speed	/jointset/knee_l/knee_angle_l/value	/jointset/knee_l/knee_angle_l/speed	/jointset/ankle_l/ankle_angle_l/value	/jointset/ankle_l/ankle_angle_l/speed	/jointset/back/lumbar_extension/value	/jointset/back/lumbar_extension/speed	/forceset/abd_r/activation	/forceset/abd_r/fiber_length	/forceset/add_r/activation	/forceset/add_r/fiber_length	/forceset/hamstrings_r/activation	/forceset/hamstrings_r/fiber_length	/forceset/bifemsh_r/activation	/forceset/bifemsh_r/fiber_length	/forceset/glut_max_r/activation	/forceset/glut_max_r/fiber_length	/forceset/iliopsoas_r/activation	/forceset/iliopsoas_r/fiber_length	/forceset/rect_fem_r/activation	/forceset/rect_fem_r/fiber_length	/forceset/vasti_r/activation	/forceset/vasti_r/fiber_length	/forceset/gastroc_r/activation	/forceset/gastroc_r/fiber_length	/forceset/soleus_r/activation	/forceset/soleus_r/fiber_length	/forceset/tib_ant_r/activation	/forceset/tib_ant_r/fiber_length	/forceset/abd_l/activation	/forceset/abd_l/fiber_length	/forceset/add_l/activation	/forceset/add_l/fiber_length	/forceset/hamstrings_l/activation	/forceset/hamstrings_l/fiber_length	/forceset/bifemsh_l/activation	/forceset/bifemsh_l/fiber_length	/forceset/glut_max_l/activation	/forceset/glut_max_l/fiber_length	/forceset/iliopsoas_l/activation	/forceset/iliopsoas_l/fiber_length	/forceset/rect_fem_l/activation	/forceset/rect_fem_l/fiber_length	/forceset/vasti_l/activation	/forceset/vasti_l/fiber_length	/forceset/gastroc_l/activation	/forceset/gastroc_l/fiber_length	/forceset/soleus_l/activation	/forceset/soleus_l/fiber_length	/forceset/tib_ant_l/activation	/forceset/tib_ant_l/fiber_length
      0.00000000	      0.05744161	      0.00000000	     -0.04498878	      0.00000000	     -0.07049568	      0.00000000	      0.89224519	      0.00000000	      0.93444379	      0.00000000	     -0.24077449	      0.00000000	     -0.12803206	      0.00000000	      0.01810458	      0.00000000	      0.00000000	      0.00000000	     -0.11540526	      0.00000000	      0.25785393	      0.00000000	     -0.20326741	      0.00000000	     -0.01891879	      0.00000000	      0.00000000	      0.00000000	      0.02977522	      0.00000000	      0.16447757	      0.00000000	     -0.08726650	      0.00000000	      0.05000000	      0.10000000	      0.05000000	      0.10000000	      0.05000000	      0.10000000	      0.05000000	      0.10000000	      0.05000000	      0.10000000	      0.05000000	      0.10000000	      0.05000000	      0.10000000	      0.05000000	      0.10000000	      0.05000000	      0.10000000	      0.05000000	      0.10000000	      0.05000000	      0.10000000	      0.05000000	      0.10000000	      0.05000000	      0.10000000	      0.05000000	      0.10000000	      0.05000000	      0.10000000	      0.05000000	      0.10000000	      0.05000000	      0.10000000	      0.05000000	      0.10000000	      0.05000000	      0.10000000	      0.05000000	      0.10000000	      0.05000000	      0.10000000	      0.05000000	      0.10000000
